<?xml version="1.0" encoding="UTF-8"?>
<svg width="211px" height="290px" viewBox="0 0 211 290" version="1.1" xmlns="http://www.w3.org/2000/svg" xmlns:xlink="http://www.w3.org/1999/xlink">
    <title>logo-paris</title>
    <g id="logo-paris" stroke="none" stroke-width="1" fill="none" fill-rule="evenodd">
        <g id="paris" transform="translate(57.378608, 78.765705)" fill="#1D1D1B" fill-rule="nonzero">
            <path d="M9.51275492,63.1524753 L0,63.1524753 L0,88.4604279 L5.75772009,88.4604279 L5.75772009,80.5096996 L9.5405691,80.5096996 C14.4916516,80.5096996 18.330133,76.6463165 18.330133,71.8310892 C18.330133,67.0158584 14.4888681,63.1524753 9.51275492,63.1524753 L9.51275492,63.1524753 Z M9.51275492,75.0785686 L5.72990574,75.0785686 L5.72990574,68.583608 L9.51275492,68.583608 C11.292919,68.583608 12.5724128,69.9833849 12.5724128,71.8310892 C12.5724128,73.6787918 11.292919,75.0785686 9.51275492,75.0785686 Z M70.9284286,63.1524753 L76.6861527,63.1524753 L76.6861527,88.4604279 L70.9284286,88.4604279 L70.9284286,63.1524753 Z M64.864746,71.8310892 C64.8801941,67.0315969 61.010633,63.1369202 56.2420749,63.1524289 L46.1980518,63.1524289 L46.1980518,88.4604279 L51.9557708,88.4604279 L51.9557708,80.5096996 L54.8763546,80.5096996 L59.4102095,88.4604279 L65.5851572,88.4604279 L60.3002934,79.3058945 C63.0845814,77.9901041 64.864746,74.9385912 64.864746,71.8310892 L64.864746,71.8310892 Z M56.2698882,75.4705051 L51.9585518,75.4705051 L51.9585518,68.583608 L56.2698882,68.583608 C57.855346,68.583608 59.1348403,70.0673713 59.1348403,72.0270557 C59.1348403,73.9867436 57.855346,75.4705051 56.2698882,75.4705051 Z M26.7859157,63.1524753 L18.2466863,88.4604279 L24.5328907,88.4604279 L25.923645,84.0091417 C28.8818878,84.7556869 31.9774871,84.7556869 34.9357298,84.0091417 L36.3543025,88.4604279 L42.6405036,88.4604279 L34.1012775,63.1524753 L26.7859157,63.1524753 Z M30.4296866,79.5018594 C29.4261737,79.5102276 28.425801,79.3879102 27.4534745,79.1379183 L30.4296866,69.7594194 L33.4031177,79.1379183 C32.429194,79.3740067 31.4314438,79.4961306 30.4296866,79.5018594 Z M94.07057,73.650798 C90.1764606,72.4749849 88.5910028,71.803092 88.5910028,70.2073486 C88.5910028,69.0035418 89.731422,68.3036534 91.2890648,68.3036534 C93.7924232,68.3036534 94.8215789,69.6474375 95.6838479,70.907237 L100.468038,68.3596426 C99.6614041,66.7638992 97.3249374,62.6485569 91.2890648,62.6485569 C87.0333601,62.6485569 82.8611005,65.3641224 82.8611005,70.3473259 C82.8611005,76.3103709 88.5075595,77.430193 90.2599091,78.0460933 C92.0122553,78.6619953 95.4613277,79.1099245 95.4613277,81.265579 C95.4613277,82.7773377 93.903685,83.3372487 91.8731818,83.3372487 C89.6201602,83.3372487 87.8121823,82.0774493 86.6995782,80.1457585 L81.8013471,82.7213433 C82.162944,83.7851745 85.0278943,88.9643463 91.8425875,88.9643463 C97.210893,88.9643463 101.188452,86.1088035 101.188452,81.1815909 C101.191333,77.2902157 99.077287,75.1345612 94.0705734,73.650798 L94.07057,73.650798 Z" id="path4"></path>
            <path d="M81.633803,34.3799584 C81.3959264,34.3799584 81.2373381,34.5782296 80.9598166,35.1333838 C75.2507394,47.6640246 64.7048113,53.6517679 53.5641919,53.731073 C31.3225896,53.8896916 26.0892705,35.6092278 25.9703323,35.0937278 L37.3091866,37.1953852 C37.3488316,37.3143462 41.7099311,47.3071365 53.1677271,47.3071365 C65.2995094,47.3071365 73.7045336,35.2126889 73.7045336,22.7217023 C73.7045336,11.4599867 68.9469692,5.03605027 62.088151,0 L31.2036497,14.2754152 C30.9205366,14.4033031 30.9762176,14.8209982 31.2829447,14.8702253 C48.3705178,18.835618 51.3043497,31.1283334 50.4717751,38.1074275 C50.3528368,39.1384273 51.0268232,38.9798104 51.7008112,37.0367717 C54.0399467,30.0973336 52.3748008,20.0252365 43.0975538,14.3547237 C43.0975538,14.3547237 60.2644185,5.74982305 60.2644185,5.78947559 C62.3260326,7.37563302 69.0659109,11.9358325 69.0659109,22.7613548 C69.0659109,33.5868789 62.8017856,43.4210522 53.1677271,43.4210522 C43.6129568,43.4210522 40.2826635,33.6661873 40.2033702,33.5075738 L19.7855003,29.0663303 C19.46254,28.9895787 19.1589561,29.2509893 19.186843,29.5818319 C20.9709254,45.1658232 33.4198809,57.8947368 51.4986186,57.8947368 C66.4849311,57.8947368 76.6740427,49.6467192 80.9954973,38.028119 C81.9906228,35.3316532 81.9509745,34.3799584 81.633803,34.3799584 Z" id="path4-0"></path>
        </g>
    </g>
</svg>