<?xml version="1.0" encoding="UTF-8"?>
<svg width="224px" height="290px" viewBox="0 0 224 290" version="1.1" xmlns="http://www.w3.org/2000/svg" xmlns:xlink="http://www.w3.org/1999/xlink">
    <title>logo-st-jacques-de-compostelle</title>
    <g id="logo-st-jacques-de-compostelle" stroke="none" stroke-width="1" fill="none" fill-rule="evenodd">
        <g id="st-jacques-de-compostelle" transform="translate(66.806452, 79.086587)">
            <rect id="Rectangle" fill="#1D1D1B" x="0" y="0" width="89.6434635" height="89.6434635"></rect>
            <path d="M44.0976854,14.2614601 L45.2868738,15.4435365 L19.8821748,40.8615598 L60.0147229,18.0826533 L60.8452431,19.5379071 L20.76,42.2900146 L71.4410941,28.960747 L71.8692524,30.579836 L21.1202273,43.9268619 L75.5517827,43.9269728 L75.5517827,45.601419 L21.3859713,45.6013081 L71.8725777,59.1006605 L71.4377688,60.7179858 L20.8995117,47.2049708 L60.8482544,70.0982576 L60.0117117,71.5500766 L19.7125933,48.4560866 L45.2886906,74.2035739 L44.0958685,75.3820034 L19.4093002,50.5301165 L19.4093002,50.994547 L29.9279098,69.6474305 L28.4644287,70.4681986 L19.4093002,54.4102649 L19.4093317,58.8838912 L17.7303061,58.8838912 L17.7302745,51.4327952 L15.0931501,46.7561739 L15.0806673,46.7290291 C14.4536482,45.3655259 14.4609683,43.7946795 15.1006678,42.4370792 L15.1006678,42.4370792 L15.1006678,42.4370792 L17.7302745,37.8866779 L17.7303061,30.8358482 L19.4093317,30.8358482 L19.4093002,34.9813615 L28.4688119,19.3055525 L29.9235266,20.1416764 L19.4093002,38.3348205 L19.4093002,38.9630423 L44.0976854,14.2614601 Z" id="Path" fill="#FFFFFF" fill-rule="nonzero"></path>
        </g>
    </g>
</svg>