<?xml version="1.0" encoding="UTF-8"?>
<svg width="211px" height="290px" viewBox="0 0 211 290" version="1.1" xmlns="http://www.w3.org/2000/svg" xmlns:xlink="http://www.w3.org/1999/xlink">
    <title>logo-paris</title>
    <g id="logo-paris" stroke="none" stroke-width="1" fill="none" fill-rule="evenodd">
        <g id="paris" transform="translate(40.000000, 50.000000)" fill="#1D1D1B" fill-rule="nonzero">
            <path d="M12.2213363,80.6510626 L0,80.6510626 L0,113.348937 L7.39712462,113.348937 L7.39712462,103.076596 L12.2570701,103.076596 C18.6178819,103.076596 23.5493001,98.0851054 23.5493001,91.8638317 C23.5493001,85.6425536 18.6143059,80.6510626 12.2213363,80.6510626 L12.2213363,80.6510626 Z M12.2213363,96.0595751 L7.36139065,96.0595751 L7.36139065,87.6680861 L12.2213363,87.6680861 C14.5083693,87.6680861 16.1521752,89.4765978 16.1521752,91.8638317 C16.1521752,94.2510635 14.5083693,96.0595751 12.2213363,96.0595751 Z M91.1239896,80.6510626 L98.5211194,80.6510626 L98.5211194,113.348937 L91.1239896,113.348937 L91.1239896,80.6510626 Z M83.3337853,91.8638317 C83.3536319,85.6628877 78.3822847,80.6309654 72.2559677,80.6510026 L59.3520944,80.6510026 L59.3520944,113.348937 L66.7492177,113.348937 L66.7492177,103.076596 L70.5013837,103.076596 L76.3261701,113.348937 L84.2593202,113.348937 L77.4696891,101.52128 C81.0467517,99.821279 83.3337853,95.8787244 83.3337853,91.8638317 L83.3337853,91.8638317 Z M72.2917004,96.5659572 L66.7527905,96.5659572 L66.7527905,87.6680861 L72.2917004,87.6680861 C74.328588,87.6680861 75.9723946,89.5851082 75.9723946,92.1170205 C75.9723946,94.6489373 74.328588,96.5659572 72.2917004,96.5659572 Z M34.4127108,80.6510626 L23.4420934,113.348937 L31.5181786,113.348937 L33.3049245,107.597876 C37.1054722,108.562412 41.0824863,108.562412 44.8830341,107.597876 L46.7055192,113.348937 L54.7816,113.348937 L43.8109869,80.6510626 L34.4127108,80.6510626 Z M39.0939782,101.774467 C37.8047336,101.785279 36.5195233,101.627244 35.2703446,101.304255 L39.0939782,89.1872344 L42.9140389,101.304255 C41.6628085,101.609281 40.3809673,101.767065 39.0939782,101.774467 Z M120.855429,94.2148955 C115.852543,92.6957451 113.815656,91.8276594 113.815656,89.7659589 C113.815656,88.2106405 115.280788,87.3063847 117.281941,87.3063847 C120.498085,87.3063847 121.820273,89.0425538 122.928058,90.6702147 L129.074457,87.3787228 C128.038149,85.3170223 125.036417,80 117.281941,80 C111.814503,80 106.45427,83.5085107 106.45427,89.9468096 C106.45427,97.6510637 113.708454,99.0978739 115.959752,99.8936171 C118.211047,100.689362 122.642179,101.268087 122.642179,104.053193 C122.642179,106.006385 120.641026,106.72979 118.032375,106.72979 C115.137847,106.72979 112.815081,105.102129 111.385683,102.606385 L105.092771,105.93404 C105.557326,107.30851 109.238018,114 117.993069,114 C124.889901,114 129.999996,110.310639 129.999996,103.94468 C130.003697,98.9170232 127.287716,96.1319176 120.855433,94.2148955 L120.855429,94.2148955 Z" id="path4"></path>
            <path d="M104.744845,43.9438378 C104.441085,43.9438378 104.238574,44.1972644 103.884189,44.9068523 C96.5938982,60.9232896 83.1271195,68.5767142 68.900941,68.6780805 C40.4991985,68.880824 33.8164344,45.5150675 33.6645544,44.8561649 L48.1438719,47.5424651 C48.1944971,47.6945189 53.7634676,60.4671217 68.3946694,60.4671217 C83.886528,60.4671217 94.6194477,45.0082187 94.6194477,29.0424667 C94.6194477,14.6479467 88.5442057,6.43698789 79.7857364,0 L40.3473163,18.2465762 C39.985791,18.4100402 40.0568936,18.9439304 40.4485732,19.0068516 C62.2688021,24.0753445 66.0152021,39.7876698 64.9520337,48.7082209 C64.8001537,50.0260262 65.6608105,49.823285 66.5214694,47.3397281 C69.5084631,38.4698645 67.3821305,25.5958932 55.5354128,18.3479468 C55.5354128,18.3479468 77.4568943,7.34931928 77.4568943,7.40000244 C80.0895028,9.42740002 88.69609,15.256164 88.69609,29.0931499 C88.69609,42.9301379 80.6970227,55.5 68.3946694,55.5 C56.1935644,55.5 51.9408971,43.0315085 51.8396424,42.8287716 L25.7667419,37.1520549 C25.3543329,37.0539524 24.966667,37.3880827 25.0022775,37.8109597 C27.2804879,57.730134 43.1773655,74 66.2632767,74 C85.4002698,74 98.4114063,63.4575339 103.929752,48.6068503 C105.200492,45.1602768 105.149862,43.9438378 104.744845,43.9438378 Z" id="path4-0"></path>
        </g>
    </g>
</svg>