<?xml version="1.0" encoding="UTF-8"?>
<svg width="297px" height="290px" viewBox="0 0 297 290" version="1.1" xmlns="http://www.w3.org/2000/svg" xmlns:xlink="http://www.w3.org/1999/xlink">
    <title>logo-monument-historique</title>
    <g id="logo-monument-historique" stroke="none" stroke-width="1" fill="none" fill-rule="evenodd">
        <g id="monuments-historiques" transform="translate(61.000000, 47.000000)" fill-rule="nonzero">
            <polygon id="Path" fill="#1D1D1B" points="104.092786 0 88.9506845 0 78.2097208 10.7002686 78.2097208 25.8932465 78.9744612 26.6587041 75.0706191 26.6587041 44.6944157 57.0436743 44.6944157 60.9754564 43.9323909 60.1830473 28.7406233 60.1830473 18 70.9265669 18 86.0734331 28.7406233 96.8169527 43.9323909 96.8169527 44.6944157 96.0248296 44.6944157 99.9563273 57.8956198 113.161091 64.1546359 106.909563 53.5601419 96.315189 53.5601419 84.9022084 43.2890724 84.9022084 40.2318095 87.9574177 32.4342603 87.9574177 26.8571465 82.4205659 26.8571465 74.5797201 32.4345463 69.0425823 40.2315235 69.0425823 43.2890724 72.0977916 53.5601419 72.0977916 53.5601419 60.6850971 64.155625 50.0894481 62.9795602 48.9261857 51.9156927 59.9930368 51.9156927 70.4557596 43.9831557 70.4557596 40.9260218 67.4062716 31.7442492 67.4062716 25.221277 73.8752109 25.221277 83.1247891 31.7442492 89.5937284 40.9260218 89.5937284 43.9834417 86.5442404 51.9156927 86.5442404 51.9156927 96.9521572 61.815849 106.909156 57.8957681 110.833155 46.3388649 99.2648391 46.3388649 92.0246207 43.2347168 95.1262891 29.431925 95.1262891 19.6873479 85.3733629 19.6873479 71.6263511 29.432783 61.8193579 43.2327148 61.8193579 46.3388649 64.9852265 46.3388649 57.735733 75.7173077 28.3493677 83.0022952 28.3493677 79.8455903 25.1986116 79.8455903 11.3923837 89.5990331 1.64489268 103.392673 1.64489268 113.14297 11.3926697 113.14297 25.2000419 110.050924 28.3493677 117.280404 28.3493677 131.382629 42.4639773 127.463406 46.3765333 114.969352 33.8819285 104.563235 33.8819285 104.563235 25.9475384 107.612473 22.8893097 107.612473 13.7037586 101.089652 7.22322437 91.898761 7.22322437 85.4309978 13.7044785 85.4309978 22.889294 88.4796637 25.9478244 88.4796637 33.8819285 78.0193401 33.8819285 66.9548918 45.0051529 68.1207741 46.1669655 78.7116353 35.5268212 90.120681 35.5268212 90.120681 25.300011 87.0668673 22.1966109 87.0668673 14.3961007 92.6019404 8.86811705 100.440672 8.86811705 105.976603 14.3963868 105.976603 22.1948945 102.876459 25.2987516 102.876459 35.5268212 114.331549 35.5268212 139.483329 60.6853832 139.483329 72.0977916 149.707413 72.0977916 152.809659 69.0425823 160.608066 69.0425823 166.134274 74.5794341 166.134274 82.420852 160.608352 87.9574177 152.809373 87.9574177 149.707413 84.9022084 139.483329 84.9022084 139.483329 96.3149029 128.846053 106.90862 130.00806 108.075327 141.127778 96.9526102 141.127778 86.5442404 149.009981 86.5442404 152.118844 89.5937284 161.299796 89.5937284 167.778723 83.1242134 167.778723 73.8757866 161.299796 67.4062716 152.118844 67.4062716 149.010267 70.4557596 141.127778 70.4557596 141.127778 59.9926939 128.636828 47.5496994 132.548043 43.6297056 146.658847 57.735733 146.658847 64.9770162 149.808468 61.8193579 163.610402 61.8193579 173.355551 71.6266371 173.355551 85.3730768 163.61126 95.1262891 149.806466 95.1262891 146.658847 92.0326357 146.658847 99.264267 117.280404 128.650632 110.050924 128.650632 113.14297 131.800244 113.14297 145.607616 103.392959 155.355107 89.5987471 155.355107 79.8455903 145.607902 79.8455903 131.801675 83.0022952 128.650632 75.7170218 128.650632 61.6065035 114.536309 65.5254405 110.623753 78.0197806 123.118071 88.4796637 123.118071 88.4796637 131.002686 85.4309978 134.112102 85.4309978 143.295522 91.898761 149.776776 101.089652 149.776776 107.612473 143.296241 107.612473 134.112086 104.563235 131.002972 104.563235 123.118071 114.969371 123.118071 126.089089 111.995355 124.922697 110.833035 114.331835 121.473179 102.876459 121.473179 102.876459 131.702731 105.976603 134.752755 105.976603 142.603899 100.440958 148.131883 92.6016544 148.131883 87.0668673 142.604185 87.0668673 134.750753 90.120681 131.701467 90.120681 121.473179 78.7113493 121.473179 66.6925704 109.451159 70.6635578 105.533454 81.0226688 115.894847 95.6975088 115.894847 95.6975088 132.835811 97.3453899 132.835811 97.3453899 115.894847 112.020802 115.894847 133.906501 94.0032461 133.906501 79.3238767 150.842898 79.3238767 150.842898 77.6761233 133.906501 77.6761233 133.906501 62.9967539 124.923214 54.011044 123.761018 55.17706 132.262052 63.6888142 132.262052 93.3111858 111.328928 114.249954 81.7142566 114.249954 71.8301158 104.36372 75.7524847 100.448304 84.0168821 108.725976 109.02659 108.725976 115.91853 101.822627 114.753722 100.661884 108.327165 107.02673 84.6619675 107.02673 76.9153248 99.2748515 80.8368357 95.3620094 86.96484 101.502751 106.023571 101.502751 119.517713 88.0043904 119.517713 68.9954615 113.326004 62.8128731 117.288126 58.8880161 125.040775 66.6919591 125.040775 90.308613 118.677654 96.7374842 119.838918 97.9034451 126.685224 91.0075291 126.685224 65.9921487 109.026734 48.2740243 84.0168821 48.2740243 75.7524847 56.5519824 71.8301158 52.6365657 81.7145426 42.7500456 111.328928 42.7500456 119.838318 51.2527169 121.004166 50.0909392 112.020802 41.1051529 97.3453899 41.1051529 97.3453899 24.1641886 95.6975088 24.1641886 95.6975088 41.1051529 81.0228781 41.1051529 59.0826314 62.9965445 59.0826314 77.6761233 42.157674 77.6761233 42.157674 79.3238767 59.0826314 79.3238767 59.0826314 94.0037683 68.1209623 102.988401 69.281798 101.822871 60.781419 93.311758 60.781419 63.6888142 70.6649878 53.8025801 74.5793489 57.7254346 66.3039084 65.9917746 66.3039084 91.0082199 73.2054642 97.9026829 74.3660298 96.7365436 67.9483576 90.3080409 67.9483576 66.6925312 84.6625395 49.9732699 108.326593 49.9732699 116.126144 57.7251485 112.163736 61.6391349 106.023567 55.4972486 86.9646474 55.4972486 73.5251854 68.9959518 73.5251854 88.0035854 78.2949742 92.8209756 79.4490064 91.5885188 75.1696347 87.3578186 75.1696347 69.6416093 80.8359777 63.9760267 84.7494808 67.9400751 80.7464625 71.9449817 80.7464625 85.0550299 83.3758585 87.685135 84.5389206 86.5086385 82.3909117 84.3635418 82.3909117 72.6370304 90.6603463 64.3653657 102.382552 64.3653657 104.527568 66.513879 105.704495 65.350629 103.074406 62.720473 89.9676592 62.720473 85.9231886 66.7772075 81.9991038 62.8131591 87.6651608 57.1421413 105.331693 57.1421413 117.819498 69.6418953 117.819498 87.3583907 112.163164 93.0242593 108.240223 89.0613553 112.296436 85.0561174 112.296436 71.9430641 109.611069 69.3172476 108.446903 70.4939761 110.651987 72.6393189 110.651987 84.3629696 102.382552 92.6346343 91.3978565 92.6346343 89.7534072 94.279527 103.075525 94.279527 107.077097 90.2242229 110.989743 94.1871269 105.331693 99.8578587 87.6648748 99.8578587 81.9993898 94.187413 89.6241541 86.5092327 86.0029801 82.8871433 86.0029801 74.1131427 92.1354888 67.9784082 100.853358 67.9784082 107.040491 74.114287 107.040491 82.8859991 100.853358 89.0218778 92.1400646 89.0218778 91.059325 87.8790739 84.7472191 94.1892097 88.4938164 97.8897088 104.550408 97.8897088 108.239753 94.1875867 107.077096 93.0254933 103.855979 96.2451022 89.1854899 96.2451022 87.0871727 94.1862687 91.0427165 90.2322328 91.4349467 90.6664845 101.547226 90.6664845 108.68494 83.5274321 108.68494 73.4725747 105.701766 70.4886575 109.615555 66.5165992 114.261768 71.1640647 114.261768 85.8350771 110.98494 89.0586878 112.162581 90.2182683 115.906217 86.5324717 115.906217 70.4688534 104.550136 59.1102912 88.4938164 59.1102912 84.7456622 62.8123281 85.9230102 63.9716199 89.1860618 60.7551838 103.855693 60.7551838 108.449569 65.350871 104.527772 69.3149193 101.547233 66.3335155 91.4435394 66.3335155 84.3127723 73.4726504 84.3127723 83.5274871 87.2965182 86.5101982 83.3747213 90.4307642 78.7817031 85.8365074 78.7817031 71.1634926 82.0002918 67.9410498 80.8376535 66.778975 77.1372539 70.4685905 77.1372539 86.5313271 82.2133112 91.5976367 78.2880824 95.5702671 71.5604261 88.8319285 71.5604261 68.1686436 86.1931643 53.5319595 106.849448 53.5319595 112.161759 58.889197 113.32373 57.7269122 107.554039 51.8870668 85.4898509 51.8870668 69.9159769 67.4651406 69.9159769 89.5349576 77.1243843 96.7371397 73.2043033 100.661138 64.3391491 91.8353595 64.3391491 65.1652126 71.8294171 57.727669 70.6666003 56.5505356 62.6946999 64.5156829 62.6946999 92.4842995 72.0394613 101.823434 68.1199523 105.746861 57.1722104 94.7850097 57.1722104 81.2891658 41.8132012 81.2891658 38.758955 84.3472359 33.9108327 84.3472359 30.4663551 80.9015433 30.4663551 76.0984567 33.9111187 72.6527641 38.758669 72.6527641 41.8132012 75.7108342 57.1722104 75.7108342 57.1722104 62.2149903 80.1873497 39.1398637 93.7327494 39.1398637 93.7327494 23.7767283 90.6760758 20.7219289 90.6760758 15.8724992 94.0745089 12.4811596 98.9237752 12.4811596 102.367395 15.8736435 102.367395 20.7216428 99.3095772 23.776697 99.3095772 39.1398637 112.801783 39.1398637 123.760392 50.090844 119.838023 54.0119821 110.501783 44.7181954 82.4984147 44.7181954 74.5781123 52.6376653 75.7541874 53.8009379 83.190257 46.3630881 109.798875 46.3630881 128.649983 65.1654987 128.649983 91.8353595 119.838309 100.660566 115.918228 96.7371397 123.127494 89.5349641 123.127494 67.4649591 117.288026 61.6365541 116.130705 62.8125479 121.428706 68.1677854 121.428706 88.8313564 106.850306 103.413688 86.1917343 103.413688 80.8377792 98.1141198 79.6629775 99.2726257 85.4896781 105.112933 107.553146 105.112933 114.7531 97.9025819 118.675469 101.822576 109.799733 110.636912 83.189971 110.636912 75.7541874 103.199062 74.5781123 104.362335 82.4984147 112.281805 110.502189 112.281805 130.294432 92.4842235 130.294432 64.5161828 121.003151 55.1774243 124.923232 51.2534255 135.87126 62.2155625 135.87126 75.7108342 151.230269 75.7108342 154.284516 72.6527641 159.131208 72.6527641 162.522777 76.0973124 162.522777 80.9026876 159.131208 84.3472359 154.28423 84.3472359 151.230269 81.2891658 135.87126 81.2891658 135.87126 94.7844375 112.801783 117.860136 99.3095772 117.860136 99.3095772 133.223303 102.367395 136.278643 102.367395 141.126643 98.9240611 144.51884 94.0742229 144.51884 90.6760758 141.127787 90.6760758 136.278357 93.7327494 133.223272 93.7327494 117.860136 80.1876357 117.860136 70.6666576 108.284508 69.4929523 109.4489 79.5469593 119.505029 92.0883002 119.505029 92.0883002 132.434171 89.0402064 135.589447 89.0402064 141.767899 93.4259356 146.163733 99.6169631 146.163733 104.002692 141.767899 104.002692 135.589431 100.954026 132.434458 100.954026 119.505029 113.496516 119.505029 124.923518 108.07517 128.846173 111.996308 115.80469 125.083361 106.485668 125.083361 106.485668 130.228137 109.533762 133.274926 109.533762 144.080298 101.916387 151.742065 91.1259399 151.742065 83.4547988 144.080298 83.4547988 133.274926 86.5114724 130.228372 86.5114724 125.083361 77.2379228 125.083361 65.5267485 113.371295 64.3543447 114.535264 76.5440471 126.728253 84.8670232 126.728253 84.8670232 129.524857 81.8189293 132.583117 81.8189293 144.771701 90.4231134 153.386957 102.619785 153.386957 111.223969 144.771701 111.223969 132.583101 108.175303 129.525143 108.175303 126.728253 116.499424 126.728253 144.736986 98.4830756 144.736986 90.1572829 147.53255 90.1572829 150.590256 93.2067709 162.775569 93.2067709 171.388504 84.6002665 171.388504 72.3997335 162.775569 63.7932291 150.590256 63.7932291 147.532836 66.8427171 144.736986 66.8427171 144.736986 58.5165611 132.546468 46.3754915 131.383539 47.5518533 143.092537 59.2121315 143.092537 68.5333807 148.236837 68.5333807 151.283038 65.4295397 162.083209 65.4295397 169.744054 73.1033217 169.744054 83.8969644 162.083495 91.5704603 151.282752 91.5704603 148.236837 88.4666193 143.092537 88.4666193 143.092537 97.7881546 130.008727 110.833441 126.088646 106.909442 137.515709 95.4793606 137.515709 82.9340585 150.535457 82.9340585 153.593163 85.9835465 159.772577 85.9835465 164.167227 81.5966346 164.167227 75.4033654 159.772577 71.0164535 153.593163 71.0164535 150.535743 74.0659415 137.515709 74.0659415 137.515709 61.5206415 113.496516 37.494971 100.954026 37.494971 100.954026 24.471426 104.002692 21.4131816 104.002692 15.2321014 99.6169631 10.8362669 93.4259356 10.8362669 89.0402064 15.2321014 89.0402064 21.4131659 92.0883002 24.471712 92.0883002 37.494971 79.5469544 37.494971 68.1185224 48.92626 64.1555428 45.0034055 77.2382088 31.9166393 86.5114724 31.9166393 86.5114724 26.7716275 83.4547988 23.7253599 83.4547988 12.9199883 91.1262259 5.25793521 101.916101 5.25793521 109.533762 12.9199883 109.533762 23.7253599 106.485668 26.7718632 106.485668 31.9166393 115.804404 31.9166393 127.461539 43.6287951 128.637583 42.4655526 116.499787 30.2717467 108.175303 30.2717467 108.175303 27.475143 111.223969 24.4168987 111.223969 12.2282993 102.619785 3.61304253 90.4231134 3.61304253 81.8189293 12.2282993 81.8189293 24.416883 84.8670232 27.4754291 84.8670232 30.2717467 76.5440471 30.2717467 48.3064842 58.5169244 48.3064842 66.8427171 45.4560102 66.8427171 42.3988763 63.7932291 30.2134778 63.7932291 21.6092086 72.3998186 21.6092086 84.6001814 30.2134778 93.2067709 42.3988763 93.2067709 45.4562962 90.1572829 48.3064842 90.1572829 48.3064842 98.4830756 57.8950499 108.074227 59.0673685 106.909906 49.9509334 97.7884407 49.9509334 88.4666193 44.8075299 88.4666193 41.7075239 91.5704603 30.9082114 91.5704603 23.2994164 83.8978226 23.2994164 73.1024635 30.9084974 65.4295397 41.7072379 65.4295397 44.8075299 68.5333807 49.9509334 68.5333807 49.9509334 59.2115593 62.981835 46.165987 66.9531084 50.0914161 55.4734229 61.5202479 55.4734229 74.0659415 42.5074412 74.0659415 39.4503074 71.0164535 33.2163851 71.0164535 28.8304856 75.4035357 28.8304856 81.5964643 33.2163851 85.9835465 39.4503074 85.9835465 42.5077272 82.9340585 55.4734229 82.9340585 55.4734229 95.4797542 66.9533944 106.90887 59.2693932 114.535228 75.0706176 130.341296 78.9747472 130.341296 78.2097208 131.106447 78.2097208 146.24783 88.9502761 157 104.093195 157 114.83375 146.24783 114.83375 131.103219 114.04184 130.341296 117.972278 130.341296 148.349055 99.9563273 148.349055 96.0251157 149.11108 96.8169527 164.303195 96.8169527 175 86.0727997 175 70.926912 164.303193 60.1830473 149.11108 60.1830473 148.349055 60.9751704 148.349055 57.0436727 117.972278 26.6587041 114.04184 26.6587041 114.83375 25.8964739 114.83375 10.7002686"></polygon>
            <g id="MONUMENT-HISTORIQUE" transform="translate(0.000000, 165.000000)" fill="#000000">
                <polygon id="Path" points="7.03944355 11.6784613 10.7204464 6.26238432 11.2706994 5.05461804 11.2706994 12.8484848 13.9460674 12.8484848 13.7373508 11.2255489 13.7373508 0.242424242 12.0865918 0.242424242 7.24816021 7.73434948 1.95434686 0.242424242 0 0.242424242 0.265639379 2.18617311 0.265639379 12.8484848 2.65639379 12.8484848 2.44767714 11.2255489 2.44767714 5.03574669 3.0738271 6.26238432"></polygon>
                <path d="M22.104146,0 C18.6950394,0 16.1101124,2.8796211 16.1101124,6.64965136 C16.1101124,10.2681226 18.1892928,13.0909091 21.8606384,13.0909091 C25.2697451,13.0909091 27.8921348,10.211288 27.8921348,6.42231285 C27.8921348,2.67122747 25.9628052,0 22.104146,0 Z M18.6950394,6.53598211 C18.6950394,3.82686489 20.0249656,1.81870806 22.0104893,1.81870806 C23.9960129,1.81870806 25.3072078,3.82686489 25.3072078,6.53598211 C25.3072078,9.24509933 23.9960129,11.2532562 22.0104893,11.2532562 C20.0249656,11.2532562 18.6950394,9.24509933 18.6950394,6.53598211 Z" id="Shape"></path>
                <polygon id="Path" points="40.7447298 0.242424242 38.3181533 0.242424242 38.5815027 2.18617311 38.5815027 8.69678824 37.8666972 7.52676465 31.6967974 0.242424242 29.8157303 0.242424242 30.0790797 2.18617311 30.0790797 12.8484848 32.4492242 12.8484848 32.2423068 11.2255489 32.2423068 4.50734894 32.975923 5.69624388 39.3151189 12.8484848 40.8764045 12.8484848 40.7447298 11.2255489"></polygon>
                <path d="M52.4247988,7.99679616 C52.4247988,9.88350465 51.149223,11.2419348 49.5172364,11.2419348 C47.9040083,11.2419348 46.7034664,10.0155742 46.7034664,8.12886575 L46.7034664,0.242424242 L44.0022472,0.242424242 L44.2648657,2.18573399 L44.2648657,8.27980243 C44.2648657,8.60054287 44.3774165,13.0909091 49.179584,13.0909091 C52.4810742,13.0909091 54.5820225,10.9589285 54.5820225,7.78925822 L54.5820225,0.242424242 L52.1621803,0.242424242 L52.4247988,2.18573399 L52.4247988,7.99679616 Z" id="Path"></path>
                <polygon id="Path" points="64.5068593 11.6784613 68.1878621 6.26238432 68.7381151 5.05461804 68.7381151 12.8484848 71.4134831 12.8484848 71.2047665 11.2255489 71.2047665 0.242424242 69.5540075 0.242424242 64.7155759 7.73434948 59.4217626 0.242424242 57.4674157 0.242424242 57.7330551 2.18617311 57.7330551 12.8484848 60.1238095 12.8484848 59.9150929 11.2255489 59.9150929 5.03574669 60.5412428 6.26238432"></polygon>
                <polygon id="Path" points="74.8028487 12.8484848 81.5226819 12.8484848 81.9932584 10.9802214 77.2498468 10.9802214 77.2498468 7.31917982 80.7509363 7.31917982 81.2215129 5.45091635 77.2498468 5.45091635 77.2498468 2.11068772 81.7485586 2.11068772 81.7485586 0.242424242 74.5393258 0.242424242 74.8028487 2.18617311"></polygon>
                <polygon id="Path" points="94.8458534 0.242424242 92.4192769 0.242424242 92.6826263 2.18617311 92.6826263 8.69678824 91.9678208 7.52676465 85.797921 0.242424242 83.9168539 0.242424242 84.1802033 2.18617311 84.1802033 12.8484848 86.5503478 12.8484848 86.3434304 11.2255489 86.3434304 4.50734894 87.0770465 5.69624388 93.4162425 12.8484848 94.9775281 12.8484848 94.8458534 11.2255489"></polygon>
                <polygon id="Path" points="96.4202247 2.14843041 100.416183 2.14843041 100.416183 12.8484848 103.099184 12.8484848 102.889871 11.2255489 102.889871 2.14843041 107 2.14843041 107 0.242424242 96.4202247 0.242424242"></polygon>
                <polygon id="Path" points="11.5737941 15.7575758 8.84789491 15.7575758 9.11291288 17.7013246 9.11291288 20.9849392 3.20679804 20.9849392 3.20679804 15.7575758 0.480898876 15.7575758 0.74591685 17.7013246 0.74591685 28.3636364 3.41502644 28.3636364 3.20679804 26.7407004 3.20679804 23.0419162 9.11291288 23.0419162 9.11291288 28.3636364 11.7820225 28.3636364 11.5737941 26.7407004"></polygon>
                <polygon id="Path" points="17.5884886 15.7575758 14.9078652 15.7575758 15.1684813 17.7013246 15.1684813 28.3636364 17.7932584 28.3636364 17.5884886 26.7407004"></polygon>
                <path d="M20.1977528,27.321527 C20.1977528,27.321527 21.6194902,28.6060606 24.1171369,28.6060606 C26.5763582,28.6060606 28.1325843,26.9437229 28.1325843,24.7902401 C28.1325843,20.9177489 22.6185488,20.9366391 22.6185488,18.7453758 C22.6185488,17.8764266 23.4639062,17.3097206 24.1747749,17.3097206 C26.0576162,17.3097206 27.3256523,18.3486816 27.3256523,18.3486816 L27.8059689,16.4596616 C27.1335256,16.0440771 25.8847022,15.5151515 24.2324129,15.5151515 C21.8308295,15.5151515 20.3322415,17.1963794 20.3322415,19.2365211 C20.3322415,22.9390004 25.7886389,23.0523416 25.7886389,25.2058245 C25.7886389,26.0558835 25.0393449,26.7737111 23.9826482,26.7737111 C21.9653182,26.7737111 20.3898795,25.2058245 20.3898795,25.2058245 L20.1977528,27.321527 Z" id="Path"></path>
                <polygon id="Path" points="28.6134831 17.6635819 32.6094414 17.6635819 32.6094414 28.3636364 35.292442 28.3636364 35.0831299 26.7407004 35.0831299 17.6635819 39.1932584 17.6635819 39.1932584 15.7575758 28.6134831 15.7575758"></polygon>
                <path d="M45.668191,15.7575758 C42.2590843,15.7575758 39.6741573,18.6371969 39.6741573,22.4072271 C39.6741573,26.0256984 41.7533377,28.8484848 45.4246834,28.8484848 C48.83379,28.8484848 51.4561798,25.9688637 51.4561798,22.1798886 C51.4561798,18.4288032 49.5268502,15.7575758 45.668191,15.7575758 Z M42.2590843,22.2935579 C42.2590843,19.5844406 43.5890106,17.5762838 45.5745342,17.5762838 C47.5600579,17.5762838 48.8712527,19.5844406 48.8712527,22.2935579 C48.8712527,25.0026751 47.5600579,27.0108319 45.5745342,27.0108319 C43.5890106,27.0108319 42.2590843,25.0026751 42.2590843,22.2935579 Z" id="Shape"></path>
                <path d="M63.4786517,28.3636364 L59.5841968,23.3627291 C60.9952312,22.6456179 61.9547345,21.079296 61.9547345,19.6828162 C61.9547345,17.0030847 59.7723347,15.7575758 57.5146796,15.7575758 L53.6202247,15.7575758 L53.8836178,17.7013246 L53.8836178,28.3636364 L56.5363625,28.3636364 L56.3294108,26.7407004 L56.3294108,23.9099982 L57.2889141,23.9099982 L60.4120036,28.3636364 L63.4786517,28.3636364 Z M56.3294108,22.1172201 L56.3294108,17.4937398 L57.1760314,17.4937398 C58.3613003,17.4937398 59.4148726,18.2485937 59.4148726,19.6828162 C59.4148726,21.0226819 58.3613003,22.1172201 57.1760314,22.1172201 L56.3294108,22.1172201 Z" id="Shape"></path>
                <polygon id="Path" points="67.6019717 15.7575758 64.9213483 15.7575758 65.1819645 17.7013246 65.1819645 28.3636364 67.8067416 28.3636364 67.6019717 26.7407004"></polygon>
                <path d="M75.1937765,29.6177965 L80.2887051,32 L81.1690788,30.0561219 L77.1980315,28.512454 C79.9702721,27.9216675 81.9932584,25.2917148 81.9932584,21.9566299 C81.9932584,18.1832195 80.0639288,15.5151515 76.2052696,15.5151515 C72.796163,15.5151515 70.211236,18.3928534 70.211236,22.1853214 C70.211236,25.5585216 71.9907147,28.2265896 75.1937765,28.5886845 L75.1937765,29.6177965 Z M72.796163,22.0709757 C72.796163,19.3457348 74.1260892,17.2493957 76.1116129,17.2493957 C78.0971365,17.2493957 79.4083314,19.3457348 79.4083314,22.0709757 C79.4083314,24.7962165 78.0971365,26.8925556 76.1116129,26.8925556 C74.1260892,26.8925556 72.796163,24.7962165 72.796163,22.0709757 Z" id="Shape"></path>
                <path d="M92.579855,23.5119477 C92.579855,25.3986562 91.3042792,26.7570863 89.6722926,26.7570863 C88.0590645,26.7570863 86.8585226,25.5307258 86.8585226,23.6440173 L86.8585226,15.7575758 L84.1573034,15.7575758 L84.4199219,17.7008855 L84.4199219,23.7949539 C84.4199219,24.1156944 84.5324727,28.6060606 89.3346402,28.6060606 C92.6361304,28.6060606 94.7370787,26.47408 94.7370787,23.3044097 L94.7370787,15.7575758 L92.3172364,15.7575758 L92.579855,17.7008855 L92.579855,23.5119477 Z" id="Path"></path>
                <polygon id="Path" points="97.8859948 28.3636364 104.605828 28.3636364 105.076404 26.4953729 100.332993 26.4953729 100.332993 22.8343313 103.834082 22.8343313 104.304659 20.9660679 100.332993 20.9660679 100.332993 17.6258392 104.831705 17.6258392 104.831705 15.7575758 97.6224719 15.7575758 97.8859948 17.7013246"></polygon>
            </g>
        </g>
    </g>
</svg>