<?xml version="1.0" encoding="UTF-8"?>
<svg width="282px" height="41px" viewBox="0 0 282 41" version="1.1" xmlns="http://www.w3.org/2000/svg" xmlns:xlink="http://www.w3.org/1999/xlink">
    <title>magmacultura</title>
    <g id="magmacultura" stroke="none" stroke-width="1" fill="none" fill-rule="evenodd">
        <g id="logo-blanco" transform="translate(0.000000, 0.000000)" fill="#FFFFFF" fill-rule="nonzero">
            <path d="M40.873,17.2778942 C37.028,15.8418942 33.188,14.5138942 29.437,12.9698942 C26.6956908,11.7242478 23.8732457,10.6654968 20.989,9.80089417 C16.8056908,8.69090045 12.4655529,8.29200937 8.15,8.62089417 C5.539,8.82089417 2.941,9.20889417 0.337,9.51189417 C0.237,9.52389417 0.13,9.53289417 0,9.54689417 L0,0.0048941736 L0.593,0.0048941736 C6.826,0.0048941736 13.059,-0.0161058264 19.293,0.0288941736 C20.1627784,0.095219841 21.0206277,0.271628338 21.846,0.553894174 C26.3704765,1.85608967 30.7543499,3.60468134 34.933,5.77389417 C36.798,6.70589417 38.633,7.69689417 40.482,8.65889417 C40.7386575,8.74431469 40.9084071,8.9885587 40.8993721,9.25889417 C40.883,11.8788942 40.89,14.4988942 40.888,17.1188942 C40.8865157,17.1721672 40.8815047,17.2252834 40.873,17.2778942 Z" id="Trazado_1033"></path>
            <path d="M68.573,30.3438942 L63.309,30.3438942 C63.298,30.1068942 63.28,29.8838942 63.28,29.6608942 C63.28,26.2022275 63.28,22.7435608 63.28,19.2848942 C63.28,18.7508942 63.256,18.2158942 63.219,17.6848942 C63.05,15.2668942 61.464,14.4678942 59.319,14.8908942 C57.8107771,15.2056651 56.6917286,16.478756 56.573,18.0148942 C56.5004981,18.4540734 56.467034,18.8988107 56.473,19.3438942 C56.465,22.7845608 56.465,26.2252275 56.473,29.6658942 L56.473,30.3338942 L51.204,30.3338942 L51.204,11.1498942 L56.16,11.1498942 L56.16,13.5988942 C57.5649914,11.7135712 59.7797411,10.6048982 62.131,10.6098942 C64.575,10.6158942 66.575,11.3988942 67.782,13.7298942 C68.045,13.4248942 68.276,13.1358942 68.528,12.8678942 C70.737,10.5148942 73.453,10.1858942 76.408,10.9678942 C78.4307984,11.4388264 79.9921257,13.0478457 80.402,15.0838942 C80.5719049,15.7752188 80.6605048,16.4840183 80.666,17.1958942 C80.693,21.4748942 80.684,25.7528942 80.686,30.0318942 C80.686,30.1178942 80.671,30.2038942 80.66,30.3318942 L75.394,30.3318942 L75.394,29.6428942 C75.394,26.3808942 75.405,23.1178942 75.386,19.8548942 C75.3894133,18.9823192 75.3322761,18.1105589 75.215,17.2458942 C75.1733181,16.5373429 74.8457297,15.8760818 74.3072935,15.4136224 C73.7688573,14.951163 73.0657243,14.7271441 72.359,14.7928942 C70.145,14.7598942 68.951,15.8218942 68.678,18.0928942 C68.6125048,18.6411418 68.5791145,19.1927494 68.578,19.7448942 C68.569,23.0448942 68.578,26.3448942 68.578,29.6398942 L68.573,30.3438942 Z" id="Trazado_1034"></path>
            <path d="M19.693,31.0848942 C16.253,31.0758942 13.712,30.9208942 11.281,30.0088942 C8.91580856,29.1686644 6.97869975,27.4274592 5.892,25.1648942 C5.11186226,23.702917 5.15627938,21.93876 6.009,20.5178942 C6.87342273,19.1647386 7.92293074,17.9391906 9.127,16.8768942 C10.31,15.6948942 11.477,14.4948942 12.6,13.2568942 C13.643,12.1078942 14.309,11.8968942 15.763,12.4628942 C18.2697456,13.508264 20.5904991,14.9529939 22.635,16.7408942 C25.3559671,18.861844 27.6726248,21.4555928 29.474,24.3978942 C29.9514442,25.2491782 30.3075561,26.1630192 30.532,27.1128942 C30.7441685,27.7834581 30.6541112,28.5131517 30.2852735,29.1120091 C29.9164357,29.7108664 29.3053119,30.1196338 28.611,30.2318942 C27.7407578,30.4224849 26.8565551,30.5425411 25.967,30.5908942 C23.586,30.7918942 21.202,30.9638942 19.693,31.0848942 Z" id="Trazado_1035"></path>
            <path d="M107.255,32.5738942 L110.334,32.5738942 C110.37243,32.6488467 110.402929,32.727607 110.425,32.8088942 C110.582431,33.7456157 111.202906,34.5391766 112.074,34.9178942 C113.844498,35.8332536 115.920361,35.9539307 117.785,35.2498942 C119.121443,34.7258853 120.150192,33.6269613 120.585,32.2588942 C121.120666,30.6260255 121.326651,28.9030189 121.191,27.1898942 C120.82,27.6898942 120.533,28.1518942 120.17,28.5478942 C118.934069,29.8744078 117.19799,30.6210851 115.385,30.6058942 C112.482293,30.8441956 109.686283,29.4556225 108.122,26.9988942 C107.118907,25.4086015 106.560842,23.5783137 106.506,21.6988942 C106.312531,19.3221992 106.807223,16.9400428 107.931,14.8368942 C110.083934,11.0774037 114.761077,9.59853423 118.684,11.4368942 C119.529576,11.8697266 120.255603,12.5040555 120.798,13.2838942 C120.898,13.4218942 120.998,13.5558942 121.19,13.8078942 L121.19,11.1468942 L124.176,11.1468942 C124.184,11.3198942 124.2,11.5068942 124.2,11.6928942 C124.2,17.3788942 124.235,23.0658942 124.177,28.7508942 C124.162688,30.1202224 123.981007,31.482664 123.636,32.8078942 C123.052695,35.3325145 121.054696,37.2875709 118.518,37.8158942 C115.948679,38.523983 113.217671,38.3661883 110.747,37.3668942 C108.816512,36.7099413 107.451372,34.9811032 107.26,32.9508942 C107.246,32.8478942 107.255,32.7418942 107.255,32.5738942 Z M121.068,20.3918942 C121.01,19.7728942 120.99,19.1468942 120.885,18.5358942 C120.716787,17.0884414 120.052475,15.7439154 119.005,14.7308942 C117.683544,13.598187 115.895833,13.1745862 114.206621,13.5939111 C112.517408,14.013236 111.135331,15.2236954 110.497,16.8428942 C109.51938,19.3656259 109.559896,22.1694633 110.61,24.6628942 C111.059251,25.9483445 112.052139,26.9705002 113.324,27.4568942 C115.872475,28.4953449 118.790915,27.3980983 120.024,24.9378942 C120.72323,23.5256331 121.080516,21.9687183 121.067,20.3928942 L121.068,20.3918942 Z" id="Trazado_1036"></path>
            <path d="M98.135,28.7778942 C97.1818746,29.3421221 96.1904559,29.839001 95.168,30.2648942 C92.7486259,31.2449252 90.0299306,31.1702517 87.668,30.0588942 C85.7132753,29.1362734 84.5556452,27.0785316 84.782,24.9288942 C84.6834182,22.7746012 86.0553847,20.8266967 88.117,20.1938942 C89.5876142,19.773337 91.084135,19.4493135 92.597,19.2238942 C93.753,19.0068942 94.932,18.9088942 96.085,18.6768942 C97.39,18.4148942 97.955,17.7768942 98.012,16.6668942 C98.0944516,15.5695576 97.3779706,14.5711203 96.312,14.2978942 C94.9480999,13.8343517 93.4735172,13.8081323 92.094,14.2228942 C90.8061696,14.5351271 89.8632098,15.6372618 89.754,16.9578942 L85.502,16.9578942 C85.5276996,14.9286085 86.5912644,13.0539718 88.32,11.9908942 C89.8753271,11.0962556 91.6377272,10.6242827 93.432,10.6218942 C95.2191378,10.4780596 97.0153689,10.7484011 98.681,11.4118942 C100.791923,12.1577446 102.158006,14.2064618 102.035,16.4418942 C101.998,19.6328942 102.025,22.8248942 102.028,26.0158942 C102.023909,26.2472222 102.040307,26.4784582 102.077,26.7068942 C102.192,27.3388942 102.454,27.5498942 103.103,27.5578942 C103.403,27.5578942 103.703,27.5578942 104.062,27.5578942 C104.062,28.4228942 104.07,29.3098942 104.052,30.1968942 C104.032669,30.3267796 103.950818,30.4389043 103.833,30.4968942 C102.660263,30.8885435 101.409264,30.9860686 100.19,30.7808942 C99.1539263,30.6078883 98.3344976,29.8091945 98.135,28.7778942 L98.135,28.7778942 Z M97.703,20.8098942 C96.2692705,21.3622712 94.7601651,21.6943688 93.227,21.7948942 C92.2800582,21.9402874 91.3540629,22.1991497 90.469,22.5658942 C89.4592009,23.038871 88.8836134,24.1223778 89.057,25.2238942 C89.1496207,26.1625137 89.8302409,26.9376645 90.749,27.1508942 C92.4740735,27.8190952 94.4087012,27.672087 96.013,26.7508942 C96.9125141,26.3415466 97.5402522,25.5006643 97.677,24.5218942 C97.793,23.3118942 97.708,22.0828942 97.708,20.8098942 L97.703,20.8098942 Z" id="Trazado_1037"></path>
            <path d="M0,40.7668942 L0,37.9358942 C1.14,37.8298942 2.271,37.7268942 3.4,37.6188942 C7.38,37.2398942 11.358,36.8358942 15.34,36.4858942 C19.1266667,36.1525608 22.916,35.8505608 26.708,35.5798942 C30.5309175,35.4512394 34.310075,34.7244265 37.908,33.4258942 C38.908,33.0258942 39.859,32.4918942 40.869,32.0018942 C40.875,32.1218942 40.889,32.2548942 40.889,32.3878942 C40.889,34.3308942 40.881,36.2738942 40.898,38.2168942 C40.898,38.5528942 40.811,38.7428942 40.483,38.8448942 C38.511,39.4588942 36.544,40.0868942 34.57,40.6938942 C34.308125,40.7557836 34.0386046,40.7790298 33.77,40.7628942 C22.7126667,40.7662275 11.6553333,40.7662275 0.598,40.7628942 L0,40.7668942 Z" id="Trazado_1038"></path>
            <path d="M131.687,14.3918942 C132.246458,13.6584946 132.844292,12.9551801 133.478,12.2848942 C135.67433,10.4277015 138.767209,10.0609165 141.337,11.3528942 C142.357,11.9258942 142.837,12.4918942 143.712,14.1918942 C143.801,14.0638942 143.884,13.9588942 143.952,13.8448942 C145.0642,11.8696453 147.150188,10.6424814 149.417,10.6298942 C150.237301,10.5921803 151.059166,10.6529473 151.865,10.8108942 C154.073326,11.1936362 155.766128,12.9845303 156.024,15.2108942 C156.152035,15.9477785 156.218929,16.6939866 156.224,17.4418942 C156.243,21.5238942 156.233,25.6068942 156.233,29.6898942 L156.233,30.3228942 L153.868,30.3228942 L153.868,29.6288942 C153.868,25.6002275 153.868,21.5712275 153.868,17.5418942 C153.873632,17.0606284 153.843213,16.5796166 153.777,16.1028942 C153.723121,15.1136646 153.277398,14.1866483 152.538394,13.5268367 C151.79939,12.8670252 150.82799,12.5287788 149.839,12.5868942 C146.717,12.4138942 144.758,14.0398942 144.265,17.2498942 C144.152103,17.9889423 144.093612,18.7352814 144.09,19.4828942 C144.072,22.8518942 144.082,26.2218942 144.082,29.5908942 L144.082,30.3268942 L141.717,30.3268942 L141.717,29.6728942 C141.71,25.3408942 141.712,21.0088942 141.686,16.6728942 C141.672401,16.1742159 141.586852,15.6801155 141.432,15.2058942 C140.832,13.2548942 139.147,12.3058942 136.915,12.6118942 C134.374803,12.8568706 132.37109,14.8795069 132.15,17.4218942 C132.010315,18.2288684 131.93707,19.0459422 131.931,19.8648942 C131.907,23.1448942 131.921,26.4258942 131.921,29.7058942 L131.921,30.3288942 L129.614,30.3288942 L129.614,11.1888942 L131.692,11.1888942 L131.687,14.3918942 Z" id="Trazado_1039"></path>
            <path d="M177.719,29.0888942 C177.740308,29.1238477 177.756791,29.1615225 177.768,29.2008942 C177.868,30.2738942 177.8,30.3488942 176.729,30.3718942 C176.55,30.3718942 176.371,30.3788942 176.193,30.3718942 C175.619488,30.4052394 175.059117,30.1915915 174.653376,29.7848949 C174.247635,29.3781984 174.035306,28.817326 174.07,28.2438942 C174.043,27.7438942 174.07,27.2438942 174.07,26.6438942 C173.989108,26.7163195 173.915736,26.7967273 173.851,26.8838942 C172.732671,29.0767933 170.564154,30.5394745 168.112,30.7548942 C166.835447,30.9373243 165.535583,30.8693931 164.285,30.5548942 C161.983771,30.1531281 160.330788,28.1165543 160.411,25.7818942 C160.311,22.6478942 161.904,20.7158942 165.248,20.0988942 C166.839,19.8048942 168.474,19.7478942 170.081,19.5308942 C170.962767,19.4133835 171.834995,19.2329226 172.691,18.9908942 C173.397403,18.7814439 173.90959,18.1691831 173.991,17.4368942 C174.297686,16.3057581 174.112166,15.0976968 173.480203,14.1107074 C172.84824,13.123718 171.828672,12.4496921 170.673,12.2548942 C169.159974,11.8523562 167.559638,11.9260352 166.09,12.4658942 C164.356066,13.062847 163.119387,14.6029569 162.911,16.4248942 C162.876,16.6328942 162.849,16.8418942 162.811,17.0768942 L161.426,17.0768942 C161.448,16.7988942 161.451,16.5228942 161.493,16.2538942 C161.742124,13.3099397 164.141144,11.0103074 167.093,10.8858942 C168.812877,10.6385696 170.566183,10.7751731 172.227,11.2858942 C174.229536,11.8037546 175.583136,13.669517 175.454,15.7338942 C175.466,19.4058942 175.454,23.0778942 175.454,26.7498942 C175.454,26.9098942 175.454,27.0708942 175.454,27.2308942 C175.476,28.8718942 176.004,29.3888942 177.515,29.0818942 C177.583025,29.0756798 177.651561,29.0780315 177.719,29.0888942 Z M174.112,19.7678942 C173.294415,20.0619642 172.459503,20.3054247 171.612,20.4968942 C170.365,20.7028942 169.089,20.7248942 167.841,20.9248942 C166.590363,21.0845195 165.356911,21.3579878 164.156,21.7418942 C162.701897,22.2453844 161.752477,23.6457066 161.823,25.1828942 C161.679208,26.7768044 162.541359,28.2921498 163.985,28.9828942 C165.136996,29.527854 166.420648,29.7325445 167.685,29.5728942 C170.799028,29.5228396 173.418245,27.2240927 173.872,24.1428942 C174.048541,22.6914623 174.128716,21.2299276 174.112,19.7678942 L174.112,19.7678942 Z" id="Trazado_1040"></path>
            <path d="M266.102,17.0218942 C265.954209,14.6783898 267.276178,12.4891902 269.419,11.5288942 C270.91027,10.920379 272.530676,10.6968511 274.131,10.8788942 C275.140492,10.953264 276.137344,11.1490083 277.1,11.4618942 C278.887827,12.0249115 280.064544,13.7306561 279.956,15.6018942 C279.967,19.3798942 279.956,23.1588942 279.962,26.9358942 C279.956867,27.2032516 279.971238,27.4706274 280.005,27.7358942 C280.188,28.9938942 280.605,29.3108942 281.88,29.1668942 C282,29.1528942 282.12,29.1368942 282.225,29.1228942 C282.253,29.1618942 282.271,29.1758942 282.273,29.1908942 C282.403,30.2388942 282.343,30.3118942 281.273,30.3138942 C280.934933,30.3304517 280.596063,30.3113462 280.262,30.2568942 C279.134,30.0148942 278.662,29.2808942 278.619,27.7908942 C278.61,27.4198942 278.619,27.0488942 278.619,26.5798942 C278.5,26.6898942 278.439,26.7218942 278.413,26.7728942 C277.002,29.5258942 274.625,30.6628942 271.651,30.7728942 C270.221769,30.8864502 268.78756,30.6266248 267.489,30.0188942 C265.930094,29.2394848 264.963235,27.6281834 265.009,25.8858942 C264.886,22.6278942 266.485,20.7188942 269.909,20.1168942 C271.519,19.8338942 273.164,19.7618942 274.789,19.5558942 C275.548258,19.4675956 276.299515,19.320487 277.036,19.1158942 C277.967844,18.8827456 278.625174,18.0504019 278.636,17.0898942 C279.175,13.7658942 276.373,12.0798942 273.895,12.0068942 C272.826175,11.9273087 271.752016,12.0539399 270.731,12.3798942 C268.947037,12.947568 267.661485,14.5082318 267.446,16.3678942 C267.355,16.9678942 267.146,17.1338942 266.608,17.0568942 C266.451,17.0308942 266.292,17.0328942 266.102,17.0218942 Z M278.621,19.6858942 C277.94417,19.9752215 277.246535,20.2132263 276.534,20.3978942 C275.451,20.5978942 274.339,20.6358942 273.246,20.7908942 C271.919472,20.9252253 270.603495,21.1487309 269.307,21.4598942 C267.399075,21.8739722 266.11413,23.6648599 266.333,25.6048942 C266.363381,27.4657689 267.702485,29.0467487 269.533,29.3828942 C270.438546,29.5732119 271.364827,29.6461448 272.289,29.5998942 C275.091057,29.5192743 277.522575,27.643658 278.312,24.9538942 C278.587928,23.8297131 278.69244,22.6702977 278.622,21.5148942 C278.624,20.8838942 278.62,20.2508942 278.62,19.6858942 L278.621,19.6858942 Z" id="Trazado_1041"></path>
            <path d="M251.228,30.2978942 L249.888,30.2978942 L249.888,26.3748942 L249.766,26.3578942 C249.646,26.6058942 249.54,26.8578942 249.406,27.1018942 C248.183598,29.39766 245.772273,30.809101 243.172,30.7508942 C242.139551,30.7845541 241.108087,30.6587412 240.114,30.3778942 C237.738,29.6778942 236.619,27.8658942 236.279,25.5238942 C236.171119,24.7121113 236.119995,23.893792 236.126,23.0748942 C236.111,19.3838942 236.119,15.6938942 236.12,12.0028942 C236.082467,11.7226697 236.214769,11.4468827 236.456822,11.3007829 C236.698874,11.1546832 237.00454,11.1661179 237.235,11.3298942 C237.362,11.3988942 237.421,11.6878942 237.422,11.8748942 C237.434,14.1928942 237.422,16.5108942 237.433,18.8278942 C237.442,20.6808942 237.413,22.5378942 237.52,24.3848942 C237.581133,25.2697485 237.785806,26.138765 238.126,26.9578942 C238.749367,28.4484806 240.164516,29.4562557 241.777,29.5578942 C244.394459,30.0750043 247.064358,28.9553312 248.53,26.7258942 C249.406901,25.3917576 249.874748,23.8304137 249.876,22.2338942 C249.911,18.7938942 249.886,15.3518942 249.898,11.9108942 C249.898,11.7108942 249.981,11.3458942 250.073,11.3298942 C250.423063,11.2777404 250.779611,11.2882371 251.126,11.3608942 C251.192,11.3738942 251.226,11.7088942 251.226,11.8958942 C251.231333,16.3172275 251.231333,20.7388942 251.226,25.1608942 C251.226,26.6588942 251.226,28.1565608 251.226,29.6538942 L251.228,30.2978942 Z" id="Trazado_1042"></path>
            <path d="M214.412,26.3308942 C214.388114,26.376009 214.366748,26.4224136 214.348,26.4698942 C213.132026,29.3684457 210.147756,31.1154845 207.025,30.7568942 C206.226049,30.7151846 205.434861,30.5789001 204.668,30.3508942 C202.706896,29.7341369 201.282493,28.0346097 201.018,25.9958942 C200.869575,25.2277568 200.79457,24.4472399 200.794,23.6648942 C200.772,19.7428942 200.781,15.8218942 200.794,11.8998942 C200.794,11.6998942 200.888,11.3438942 200.982,11.3288942 C201.331467,11.2812666 201.686604,11.2958241 202.031,11.3718942 C202.094,11.3848942 202.115,11.7228942 202.116,11.9118942 C202.116,15.8688942 202.108,19.8268942 202.131,23.7838942 C202.134828,24.477538 202.216676,25.1685498 202.375,25.8438942 C202.715505,27.8370897 204.350868,29.353972 206.364,29.5438942 C208.804173,30.0566178 211.323861,29.139839 212.864,27.1788942 C213.888592,25.8998357 214.460713,24.3174489 214.491,22.6788942 C214.571,19.1338942 214.551,15.5868942 214.571,12.0408942 C214.571,11.3268942 214.971,11.0508942 215.655,11.3068942 C215.757778,11.3617135 215.832864,11.4571129 215.862,11.5698942 C215.887209,11.7282611 215.893495,11.8890353 215.881,12.0488942 C215.881,17.8962275 215.881,23.7435608 215.881,29.5908942 C215.904821,29.8746094 215.764639,30.1470405 215.519938,30.2925845 C215.275236,30.4381286 214.968932,30.4312603 214.731,30.2748942 C214.624,30.2088942 214.58,29.9748942 214.578,29.8108942 C214.564,28.8488942 214.573,27.8858942 214.568,26.9228942 C214.568,26.7398942 214.545,26.5558942 214.532,26.3718942 L214.412,26.3308942 Z" id="Trazado_1043"></path>
            <path d="M197.182,17.1068942 L195.882,17.1068942 C195.818,16.8068942 195.766,16.4918942 195.682,16.1868942 C195.168603,14.0970966 193.442567,12.5251713 191.314,12.2088942 C188.909621,11.5194496 186.31981,12.1424165 184.492,13.8498942 C183.10144,15.2073569 182.216843,16.9994875 181.985,18.9288942 C181.604495,21.1923772 181.899085,23.5177985 182.832,25.6148942 C183.90805,27.9032032 186.134599,29.4332844 188.656563,29.6175252 C191.178526,29.8017659 193.603807,28.6115217 195.001,26.5038942 C195.40552,25.794379 195.708474,25.0316083 195.901,24.2378942 C196.023,23.7878942 196.19,23.6378942 196.614,23.6888942 C196.822,23.7118942 197.032,23.7158942 197.298,23.7308942 C197.289796,23.9530508 197.267753,24.1744801 197.232,24.3938942 C196.511578,28.4367238 192.775826,31.2255196 188.695,30.7668942 C184.555,30.5108942 181.765,28.0828942 180.861,23.8578942 C180.12176,21.0015223 180.432249,17.9746979 181.736,15.3278942 C182.983805,12.7201757 185.565111,11.0104497 188.453,10.8788942 C190.43297,10.6470496 192.435039,11.0575598 194.164,12.0498942 C195.934968,13.1420535 197.061525,15.0297267 197.182,17.1068942 Z" id="Trazado_1044"></path>
            <path d="M227.906,5.34589417 L229.206,5.34589417 C229.216,5.53889417 229.234,5.72589417 229.235,5.91389417 C229.235,7.51389417 229.25,9.12189417 229.227,10.7248942 C229.221,11.1468942 229.358,11.2908942 229.773,11.2828942 C230.754,11.2648942 231.737,11.2768942 232.719,11.2828942 C233.427,11.2828942 233.428,11.2828942 233.419,11.9828942 C233.419,12.1058942 233.404,12.2288942 233.391,12.4118942 L229.275,12.4118942 C229.26,12.6558942 229.24,12.8428942 229.24,13.0298942 C229.24,17.3785608 229.24,21.7268942 229.24,26.0748942 C229.242094,26.4838118 229.29108,26.8911401 229.386,27.2888942 C229.647734,28.4779333 230.748698,29.2899798 231.962,29.1888942 C232.421,29.2098942 232.882,29.1888942 233.375,29.1888942 L233.375,30.2418942 C230.575,30.7698942 227.912,29.8278942 227.904,26.5208942 C227.894,22.0838942 227.904,17.6468942 227.904,13.2098942 L227.904,12.4648942 L224.392,12.4648942 C224.377,12.1858942 224.375,11.9648942 224.352,11.7408942 C224.314,11.3838942 224.483,11.2748942 224.82,11.2798942 C225.677,11.2928942 226.534,11.2718942 227.391,11.2868942 C227.778,11.2938942 227.918,11.1608942 227.912,10.7588942 C227.892,9.17389417 227.904,7.58689417 227.904,6.00089417 L227.906,5.34589417 Z" id="Trazado_1045"></path>
            <path d="M220.545,3.85689417 L221.797,3.85689417 L221.797,30.2788942 C221.628,30.2928942 221.473,30.3118942 221.317,30.3158942 C221.072,30.3218942 220.826,30.3158942 220.545,30.3158942 L220.545,3.85689417 Z" id="Trazado_1046"></path>
            <path d="M256.896,15.5848942 C256.977218,15.476226 257.050093,15.361565 257.114,15.2418942 C257.99,12.8268942 261.046,11.1368942 263.863,11.1708942 C264.17,11.1708942 264.334,11.2618942 264.31,11.5988942 C264.291,11.8588942 264.31,12.1218942 264.31,12.3528942 C263.535,12.4528942 262.821,12.4958942 262.135,12.6528942 C259.403215,13.3112811 257.363595,15.5909728 257.012,18.3788942 C256.908266,19.2441464 256.852514,20.1144782 256.845,20.9858942 C256.824333,23.8918942 256.824333,26.7982275 256.845,29.7048942 C256.851,30.2748942 256.606,30.3178942 256.145,30.3308942 C255.645,30.3448942 255.513,30.1718942 255.513994,29.6908942 C255.527,23.7708942 255.521,17.8508942 255.53,11.9318942 C255.53,11.7248942 255.608,11.3628942 255.71,11.3408942 C256.041192,11.2814868 256.380739,11.28658 256.71,11.3558942 C256.778,11.3678942 256.828,11.6668942 256.83,11.8338942 C256.841,12.8498942 256.83,13.8668942 256.838,14.8828942 C256.837,15.0708942 256.867,15.2558942 256.896,15.5848942 Z" id="Trazado_1047"></path>
        </g>
    </g>
</svg>